M48
METRIC,LZ,000.000
;FILE_FORMAT=3:3
;TYPE=PLATED
;Layer: PTH_Through
;EasyEDA v6.5.22, 2023-01-23 21:57:17
;de8440b1728b4b1fa777d768a3c70a3b,04e00c2877c74564a5b2718db8136e36,10
;Gerber Generator version 0.2
;Holesize 1 = 0.305 mm
T01C0.305
;Holesize 2 = 0.915 mm
T02C0.915
;Holesize 3 = 1.200 mm
T03C1.200
;Holesize 4 = 1.501 mm
T04C1.501
%
G05
G90
T01
X060833Y012446
T02
X013462Y024765
X010922Y024765
X008255Y024765
X008128Y016002
X010795Y016002
X013335Y016002
X024892Y015875
X022352Y015875
X019685Y015875
X019812Y024638
X022479Y024638
X025019Y024638
X024765Y077851
X022225Y077851
X019558Y077851
X019431Y069088
X022098Y069088
X024638Y069088
X013081Y069215
X010541Y069215
X007874Y069215
X008001Y077978
X010668Y077978
X013208Y077978
T03
X051704Y057264
X049164Y057264
X046624Y057264
X044084Y057264
X041544Y057264
X039004Y057264
X036464Y057264
X033924Y057264
X031384Y057264
X028844Y057264
X026304Y057264
X023764Y057264
X021224Y057264
X018684Y057264
X016144Y057264
X013604Y057264
X011064Y057264
X008524Y057264
X005984Y057264
X003444Y057264
X051704Y039484
X049164Y039484
X046624Y039484
X044084Y039484
X041544Y039484
X039004Y039484
X036464Y039484
X033924Y039484
X031384Y039484
X028844Y039484
X026304Y039484
X023764Y039484
X021224Y039484
X018684Y039484
X016144Y039484
X013400Y039484
X011064Y039484
X008524Y039484
X005984Y039484
X003444Y039484
T04
X020000Y002900
X050000Y002900
M30
