G04 Layer: BottomLayer*
G04 EasyEDA v6.5.22, 2023-01-23 21:57:17*
G04 de8440b1728b4b1fa777d768a3c70a3b,04e00c2877c74564a5b2718db8136e36,10*
G04 Gerber Generator version 0.2*
G04 Scale: 100 percent, Rotated: No, Reflected: No *
G04 Dimensions in millimeters *
G04 leading zeros omitted , absolute positions ,4 integer and 5 decimal *
%FSLAX45Y45*%
%MOMM*%

%ADD10C,0.5000*%
%ADD11C,2.0000*%
%ADD12C,0.7000*%
%ADD13C,1.5240*%
%ADD14C,1.8000*%
%ADD15R,1.5748X1.8000*%
%ADD16R,3.0000X3.0000*%
%ADD17C,3.0000*%

%LPD*%
D10*
X6388100Y8926027D02*
G01*
X6388100Y8639662D01*
X6189009Y8926027D02*
G01*
X6298100Y8639662D01*
X6189009Y8926027D02*
G01*
X6079919Y8639662D01*
X6257190Y8735118D02*
G01*
X6120828Y8735118D01*
X5989919Y8544209D02*
G01*
X5744463Y8544209D01*
X5654464Y8926027D02*
G01*
X5654464Y8639662D01*
X5654464Y8926027D02*
G01*
X5531738Y8926027D01*
X5490829Y8912390D01*
X5477192Y8898752D01*
X5463555Y8871480D01*
X5463555Y8844208D01*
X5477192Y8816936D01*
X5490829Y8803299D01*
X5531738Y8789662D01*
X5654464Y8789662D01*
X5559010Y8789662D02*
G01*
X5463555Y8639662D01*
X5291739Y8926027D02*
G01*
X5319011Y8912390D01*
X5346283Y8885118D01*
X5359920Y8857846D01*
X5373555Y8816936D01*
X5373555Y8748753D01*
X5359920Y8707846D01*
X5346283Y8680571D01*
X5319011Y8653299D01*
X5291739Y8639662D01*
X5237192Y8639662D01*
X5209920Y8653299D01*
X5182649Y8680571D01*
X5169011Y8707846D01*
X5155374Y8748753D01*
X5155374Y8816936D01*
X5169011Y8857846D01*
X5182649Y8885118D01*
X5209920Y8912390D01*
X5237192Y8926027D01*
X5291739Y8926027D01*
X5065374Y8926027D02*
G01*
X5065374Y8639662D01*
X5065374Y8926027D02*
G01*
X4942649Y8926027D01*
X4901740Y8912390D01*
X4888102Y8898752D01*
X4874465Y8871480D01*
X4874465Y8844208D01*
X4888102Y8816936D01*
X4901740Y8803299D01*
X4942649Y8789662D01*
X5065374Y8789662D02*
G01*
X4942649Y8789662D01*
X4901740Y8776027D01*
X4888102Y8762390D01*
X4874465Y8735118D01*
X4874465Y8694209D01*
X4888102Y8666937D01*
X4901740Y8653299D01*
X4942649Y8639662D01*
X5065374Y8639662D01*
X4702649Y8926027D02*
G01*
X4729921Y8912390D01*
X4757193Y8885118D01*
X4770831Y8857846D01*
X4784465Y8816936D01*
X4784465Y8748753D01*
X4770831Y8707846D01*
X4757193Y8680571D01*
X4729921Y8653299D01*
X4702649Y8639662D01*
X4648103Y8639662D01*
X4620831Y8653299D01*
X4593556Y8680571D01*
X4579922Y8707846D01*
X4566284Y8748753D01*
X4566284Y8816936D01*
X4579922Y8857846D01*
X4593556Y8885118D01*
X4620831Y8912390D01*
X4648103Y8926027D01*
X4702649Y8926027D01*
X4380831Y8926027D02*
G01*
X4380831Y8639662D01*
X4476285Y8926027D02*
G01*
X4285376Y8926027D01*
X4195376Y8926027D02*
G01*
X4086285Y8639662D01*
X3977195Y8926027D02*
G01*
X4086285Y8639662D01*
X3805377Y8926027D02*
G01*
X3846286Y8912390D01*
X3873558Y8871480D01*
X3887195Y8803299D01*
X3887195Y8762390D01*
X3873558Y8694209D01*
X3846286Y8653299D01*
X3805377Y8639662D01*
X3778105Y8639662D01*
X3737195Y8653299D01*
X3709924Y8694209D01*
X3696286Y8762390D01*
X3696286Y8803299D01*
X3709924Y8871480D01*
X3737195Y8912390D01*
X3778105Y8926027D01*
X3805377Y8926027D01*
D11*
X1999995Y289999D02*
G01*
X3655499Y289999D01*
X4584700Y1219200D01*
X6057900Y1219200D01*
X6083300Y1244600D01*
D12*
X4154357Y3948437D02*
G01*
X3949700Y3771900D01*
X330200Y2667000D01*
X330200Y2082800D01*
X812800Y1600200D01*
X4662357Y3948437D02*
G01*
X4381500Y3657600D01*
X825500Y2476500D02*
G01*
X825500Y2654300D01*
X1600200Y2654300D01*
X1841500Y2895600D01*
X3111500Y2895600D01*
X3467100Y3251200D01*
X3975100Y3251200D01*
X4381500Y3657600D01*
X1968500Y1587500D02*
G01*
X1968500Y1765300D01*
X2197100Y1993900D01*
X3733800Y1993900D01*
X5105400Y3365500D01*
X5105400Y3883479D01*
X5170357Y3948437D01*
X1981200Y2463800D02*
G01*
X1981200Y2413000D01*
X2222500Y2171700D01*
X3467100Y2171700D01*
X4864100Y3568700D01*
X4864100Y3896179D01*
X4916357Y3948437D01*
X4408357Y5726437D02*
G01*
X4408357Y5904042D01*
X4279900Y6032500D01*
X4051300Y6032500D01*
X3606800Y6477000D01*
X774700Y6477000D01*
X774700Y6908800D01*
X787400Y6921500D01*
X4154357Y5726437D02*
G01*
X4141462Y5726437D01*
X3860800Y6007100D01*
X444500Y6007100D01*
X279400Y6172200D01*
X279400Y7277100D01*
X800100Y7797800D01*
X4916357Y5726437D02*
G01*
X2527300Y7467600D01*
X1943100Y6908800D01*
X5170357Y5726437D02*
G01*
X2425700Y8572500D01*
X1955800Y7785100D01*
D13*
G01*
X1346200Y2476500D03*
G01*
X1092200Y2476500D03*
G01*
X825500Y2476500D03*
D14*
G01*
X5170347Y5726429D03*
G01*
X4916347Y5726429D03*
G01*
X4662347Y5726429D03*
G01*
X4408347Y5726429D03*
G01*
X4154347Y5726429D03*
G01*
X3900347Y5726429D03*
G01*
X3646347Y5726429D03*
G01*
X3392347Y5726429D03*
G01*
X3138347Y5726429D03*
G01*
X2884347Y5726429D03*
G01*
X2630347Y5726429D03*
G01*
X2376347Y5726429D03*
G01*
X2122347Y5726429D03*
G01*
X1868347Y5726429D03*
G01*
X1614347Y5726429D03*
G01*
X1360347Y5726429D03*
G01*
X1106347Y5726429D03*
G01*
X852347Y5726429D03*
G01*
X598347Y5726429D03*
D15*
G01*
X344347Y5726429D03*
D14*
G01*
X5170347Y3948429D03*
G01*
X4916347Y3948429D03*
G01*
X4662347Y3948429D03*
G01*
X4408347Y3948429D03*
G01*
X4154347Y3948429D03*
G01*
X3900347Y3948429D03*
G01*
X3646347Y3948429D03*
G01*
X3392347Y3948429D03*
G01*
X3138347Y3948429D03*
G01*
X2884347Y3948429D03*
G01*
X2630347Y3948429D03*
G01*
X2376347Y3948429D03*
G01*
X2122347Y3948429D03*
G01*
X1868347Y3948429D03*
G01*
X1614347Y3948429D03*
G01*
X1340027Y3948429D03*
G01*
X1106347Y3948429D03*
G01*
X852347Y3948429D03*
G01*
X598347Y3948429D03*
G01*
X344347Y3948429D03*
D16*
G01*
X1999995Y289991D03*
G01*
X4999990Y289991D03*
D13*
G01*
X812800Y1600200D03*
G01*
X1079500Y1600200D03*
G01*
X1333500Y1600200D03*
G01*
X2489200Y1587500D03*
G01*
X2235200Y1587500D03*
G01*
X1968500Y1587500D03*
G01*
X1981200Y2463800D03*
G01*
X2247900Y2463800D03*
G01*
X2501900Y2463800D03*
G01*
X2476500Y7785100D03*
G01*
X2222500Y7785100D03*
G01*
X1955800Y7785100D03*
G01*
X1943100Y6908800D03*
G01*
X2209800Y6908800D03*
G01*
X2463800Y6908800D03*
G01*
X1308100Y6921500D03*
G01*
X1054100Y6921500D03*
G01*
X787400Y6921500D03*
G01*
X800100Y7797800D03*
G01*
X1066800Y7797800D03*
G01*
X1320800Y7797800D03*
D17*
G01*
X6083300Y1244600D03*
M02*
