G04 Layer: TopLayer*
G04 EasyEDA v6.5.22, 2023-01-23 21:57:17*
G04 de8440b1728b4b1fa777d768a3c70a3b,04e00c2877c74564a5b2718db8136e36,10*
G04 Gerber Generator version 0.2*
G04 Scale: 100 percent, Rotated: No, Reflected: No *
G04 Dimensions in millimeters *
G04 leading zeros omitted , absolute positions ,4 integer and 5 decimal *
%FSLAX45Y45*%
%MOMM*%

%ADD10C,0.1778*%
%ADD11C,0.1750*%
%ADD12C,2.0000*%
%ADD13C,1.0000*%
%ADD14C,0.2540*%
%ADD15C,1.5240*%
%ADD16C,1.8000*%
%ADD17R,1.5748X1.8000*%
%ADD18R,3.0000X3.0000*%
%ADD19C,3.0000*%
%ADD20C,0.0120*%

%LPD*%
D10*
X1944877Y622807D02*
G01*
X1939543Y633221D01*
X1929129Y643636D01*
X1918970Y648715D01*
X1898142Y648715D01*
X1887728Y643636D01*
X1877313Y633221D01*
X1871979Y622807D01*
X1866900Y607060D01*
X1866900Y581152D01*
X1871979Y565657D01*
X1877313Y555244D01*
X1887728Y544829D01*
X1898142Y539750D01*
X1918970Y539750D01*
X1929129Y544829D01*
X1939543Y555244D01*
X1944877Y565657D01*
X1944877Y581152D01*
X1918970Y581152D02*
G01*
X1944877Y581152D01*
X1979168Y648715D02*
G01*
X1979168Y539750D01*
X1979168Y648715D02*
G01*
X2051811Y539750D01*
X2051811Y648715D02*
G01*
X2051811Y539750D01*
X2086102Y648715D02*
G01*
X2086102Y539750D01*
X2086102Y648715D02*
G01*
X2122424Y648715D01*
X2138172Y643636D01*
X2148586Y633221D01*
X2153665Y622807D01*
X2159000Y607060D01*
X2159000Y581152D01*
X2153665Y565657D01*
X2148586Y555244D01*
X2138172Y544829D01*
X2122424Y539750D01*
X2086102Y539750D01*
X4812029Y633221D02*
G01*
X4806950Y643636D01*
X4791456Y648715D01*
X4781041Y648715D01*
X4765293Y643636D01*
X4754879Y627887D01*
X4749800Y601979D01*
X4749800Y576071D01*
X4754879Y555244D01*
X4765293Y544829D01*
X4781041Y539750D01*
X4786122Y539750D01*
X4801870Y544829D01*
X4812029Y555244D01*
X4817363Y570737D01*
X4817363Y576071D01*
X4812029Y591565D01*
X4801870Y601979D01*
X4786122Y607060D01*
X4781041Y607060D01*
X4765293Y601979D01*
X4754879Y591565D01*
X4749800Y576071D01*
X4851654Y586486D02*
G01*
X4945125Y586486D01*
X5052059Y648715D02*
G01*
X5000243Y539750D01*
X4979415Y648715D02*
G01*
X5052059Y648715D01*
X5091684Y565657D02*
G01*
X5086350Y560323D01*
X5091684Y555244D01*
X5096763Y560323D01*
X5091684Y565657D01*
X5183124Y648715D02*
G01*
X5131054Y576071D01*
X5209031Y576071D01*
X5183124Y648715D02*
G01*
X5183124Y539750D01*
X5243322Y648715D02*
G01*
X5284977Y539750D01*
X5326379Y648715D02*
G01*
X5284977Y539750D01*
D11*
X3048000Y9548368D02*
G01*
X3048000Y9261855D01*
X3247136Y9548368D02*
G01*
X3137915Y9261855D01*
X3247136Y9548368D02*
G01*
X3356102Y9261855D01*
X3178809Y9357360D02*
G01*
X3315208Y9357360D01*
X3446272Y9166605D02*
G01*
X3691636Y9166605D01*
X3781552Y9548368D02*
G01*
X3781552Y9261855D01*
X3781552Y9548368D02*
G01*
X3904488Y9548368D01*
X3945381Y9534652D01*
X3958843Y9520936D01*
X3972559Y9493758D01*
X3972559Y9466579D01*
X3958843Y9439147D01*
X3945381Y9425686D01*
X3904488Y9411970D01*
X3781552Y9411970D01*
X3877056Y9411970D02*
G01*
X3972559Y9261855D01*
X4144263Y9548368D02*
G01*
X4117086Y9534652D01*
X4089908Y9507474D01*
X4076191Y9480042D01*
X4062475Y9439147D01*
X4062475Y9371076D01*
X4076191Y9330181D01*
X4089908Y9302750D01*
X4117086Y9275571D01*
X4144263Y9261855D01*
X4198874Y9261855D01*
X4226306Y9275571D01*
X4253484Y9302750D01*
X4267200Y9330181D01*
X4280661Y9371076D01*
X4280661Y9439147D01*
X4267200Y9480042D01*
X4253484Y9507474D01*
X4226306Y9534652D01*
X4198874Y9548368D01*
X4144263Y9548368D01*
X4370831Y9548368D02*
G01*
X4370831Y9261855D01*
X4370831Y9548368D02*
G01*
X4493513Y9548368D01*
X4534408Y9534652D01*
X4548124Y9520936D01*
X4561586Y9493758D01*
X4561586Y9466579D01*
X4548124Y9439147D01*
X4534408Y9425686D01*
X4493513Y9411970D01*
X4370831Y9411970D02*
G01*
X4493513Y9411970D01*
X4534408Y9398254D01*
X4548124Y9384792D01*
X4561586Y9357360D01*
X4561586Y9316465D01*
X4548124Y9289287D01*
X4534408Y9275571D01*
X4493513Y9261855D01*
X4370831Y9261855D01*
X4733543Y9548368D02*
G01*
X4706111Y9534652D01*
X4678934Y9507474D01*
X4665218Y9480042D01*
X4651756Y9439147D01*
X4651756Y9371076D01*
X4665218Y9330181D01*
X4678934Y9302750D01*
X4706111Y9275571D01*
X4733543Y9261855D01*
X4787900Y9261855D01*
X4815331Y9275571D01*
X4842509Y9302750D01*
X4856225Y9330181D01*
X4869688Y9371076D01*
X4869688Y9439147D01*
X4856225Y9480042D01*
X4842509Y9507474D01*
X4815331Y9534652D01*
X4787900Y9548368D01*
X4733543Y9548368D01*
X5055361Y9548368D02*
G01*
X5055361Y9261855D01*
X4959858Y9548368D02*
G01*
X5150611Y9548368D01*
X5240781Y9548368D02*
G01*
X5349747Y9261855D01*
X5458968Y9548368D02*
G01*
X5349747Y9261855D01*
X5548884Y9493758D02*
G01*
X5576061Y9507474D01*
X5617209Y9548368D01*
X5617209Y9261855D01*
X801115Y8876537D02*
G01*
X801115Y8799321D01*
X805687Y8785605D01*
X814578Y8781034D01*
X823721Y8781034D01*
X787400Y8844787D02*
G01*
X819150Y8844787D01*
X853694Y8817610D02*
G01*
X908304Y8817610D01*
X908304Y8826500D01*
X903731Y8835644D01*
X899160Y8840215D01*
X890015Y8844787D01*
X876554Y8844787D01*
X867410Y8840215D01*
X858265Y8831071D01*
X853694Y8817610D01*
X853694Y8808465D01*
X858265Y8794750D01*
X867410Y8785605D01*
X876554Y8781034D01*
X890015Y8781034D01*
X899160Y8785605D01*
X908304Y8794750D01*
X988313Y8831071D02*
G01*
X983742Y8840215D01*
X970026Y8844787D01*
X956563Y8844787D01*
X942847Y8840215D01*
X938276Y8831071D01*
X942847Y8822181D01*
X951992Y8817610D01*
X974597Y8813037D01*
X983742Y8808465D01*
X988313Y8799321D01*
X988313Y8794750D01*
X983742Y8785605D01*
X970026Y8781034D01*
X956563Y8781034D01*
X942847Y8785605D01*
X938276Y8794750D01*
X1032002Y8876537D02*
G01*
X1032002Y8799321D01*
X1036573Y8785605D01*
X1045463Y8781034D01*
X1054607Y8781034D01*
X1018286Y8844787D02*
G01*
X1050036Y8844787D01*
X1139189Y8831071D02*
G01*
X1130045Y8840215D01*
X1121155Y8844787D01*
X1107439Y8844787D01*
X1098295Y8840215D01*
X1089152Y8831071D01*
X1084579Y8817610D01*
X1084579Y8808465D01*
X1089152Y8794750D01*
X1098295Y8785605D01*
X1107439Y8781034D01*
X1121155Y8781034D01*
X1130045Y8785605D01*
X1139189Y8794750D01*
X1169162Y8844787D02*
G01*
X1169162Y8799321D01*
X1173734Y8785605D01*
X1182878Y8781034D01*
X1196594Y8781034D01*
X1205484Y8785605D01*
X1219200Y8799321D01*
X1219200Y8844787D02*
G01*
X1219200Y8781034D01*
X1249171Y8876537D02*
G01*
X1253744Y8871965D01*
X1258315Y8876537D01*
X1253744Y8881110D01*
X1249171Y8876537D01*
X1253744Y8844787D02*
G01*
X1253744Y8781034D01*
X1288287Y8844787D02*
G01*
X1315465Y8781034D01*
X1342897Y8844787D02*
G01*
X1315465Y8781034D01*
X1372870Y8844787D02*
G01*
X1372870Y8781034D01*
X1372870Y8817610D02*
G01*
X1377442Y8831071D01*
X1386586Y8840215D01*
X1395476Y8844787D01*
X1409192Y8844787D01*
X1439163Y8817610D02*
G01*
X1493773Y8817610D01*
X1493773Y8826500D01*
X1489202Y8835644D01*
X1484629Y8840215D01*
X1475486Y8844787D01*
X1462023Y8844787D01*
X1452879Y8840215D01*
X1443736Y8831071D01*
X1439163Y8817610D01*
X1439163Y8808465D01*
X1443736Y8794750D01*
X1452879Y8785605D01*
X1462023Y8781034D01*
X1475486Y8781034D01*
X1484629Y8785605D01*
X1493773Y8794750D01*
G36*
X1155700Y9664700D02*
G01*
X1400454Y9236354D01*
X1612900Y9448800D01*
X2120900Y9448800D01*
X1905000Y9664700D01*
G37*
D12*
X4999990Y290068D02*
G01*
X4999990Y1362710D01*
X3111500Y3251200D01*
X1092200Y3251200D01*
X1092200Y2476500D01*
X2247900Y2463800D02*
G01*
X2247900Y3251200D01*
X2209800Y6908800D02*
G01*
X2209800Y6286500D01*
X1092200Y2476500D02*
G01*
X1092200Y1612900D01*
X1079500Y1600200D01*
X2247900Y2463800D02*
G01*
X2247900Y1600200D01*
X2235200Y1587500D01*
X1066800Y7797800D02*
G01*
X1066800Y6934200D01*
X1054100Y6921500D01*
X1999995Y290068D02*
G01*
X1999995Y310895D01*
X3162300Y1473200D01*
X3162300Y2489200D01*
X2527300Y2489200D01*
X2501900Y2463800D01*
X3162300Y1473200D02*
G01*
X2603500Y1473200D01*
X2489200Y1587500D01*
X1999995Y289999D02*
G01*
X1999995Y933704D01*
X1333500Y1600200D01*
X1333500Y1600200D02*
G01*
X1333500Y1765300D01*
X1625600Y2057400D01*
X1625600Y2197100D01*
X1346200Y2476500D01*
X2920415Y6908800D02*
G01*
X2920415Y7341184D01*
X2476500Y7785100D01*
X1308100Y6921500D02*
G01*
X1308100Y7061200D01*
X1600200Y7353300D01*
X1600200Y7518400D01*
X1320800Y7797800D01*
X1320800Y7797800D02*
G01*
X1320800Y8064500D01*
X1866900Y8610600D01*
X2768600Y8610600D01*
X3200400Y8178800D01*
X3200400Y6908800D01*
X2222500Y7785100D02*
G01*
X2222500Y6921500D01*
X2209800Y6908800D01*
X6083300Y1244600D02*
G01*
X6083300Y6210300D01*
X5384800Y6908800D01*
X2463800Y6908800D01*
X4999990Y1362710D02*
G01*
X4999990Y2866389D01*
X5588000Y3454400D01*
X5588000Y5867400D01*
X5168900Y6286500D01*
X1054100Y6286500D01*
X1054100Y6921500D01*
D13*
X1999995Y289999D02*
G01*
X1195900Y289999D01*
X406400Y1079500D01*
X406400Y3502479D01*
X852357Y3948437D01*
D14*
G75*
G01*
X1663700Y2476500D02*
G02*
X495300Y2476500I-584200J0D01*
G75*
G01*
X495300Y2476500D02*
G02*
X1663700Y2476500I584200J0D01*
D15*
G01*
X1346200Y2476500D03*
G01*
X1092200Y2476500D03*
G01*
X825500Y2476500D03*
D16*
G01*
X5170347Y5726429D03*
G01*
X4916347Y5726429D03*
G01*
X4662347Y5726429D03*
G01*
X4408347Y5726429D03*
G01*
X4154347Y5726429D03*
G01*
X3900347Y5726429D03*
G01*
X3646347Y5726429D03*
G01*
X3392347Y5726429D03*
G01*
X3138347Y5726429D03*
G01*
X2884347Y5726429D03*
G01*
X2630347Y5726429D03*
G01*
X2376347Y5726429D03*
G01*
X2122347Y5726429D03*
G01*
X1868347Y5726429D03*
G01*
X1614347Y5726429D03*
G01*
X1360347Y5726429D03*
G01*
X1106347Y5726429D03*
G01*
X852347Y5726429D03*
G01*
X598347Y5726429D03*
D17*
G01*
X344347Y5726429D03*
D16*
G01*
X5170347Y3948429D03*
G01*
X4916347Y3948429D03*
G01*
X4662347Y3948429D03*
G01*
X4408347Y3948429D03*
G01*
X4154347Y3948429D03*
G01*
X3900347Y3948429D03*
G01*
X3646347Y3948429D03*
G01*
X3392347Y3948429D03*
G01*
X3138347Y3948429D03*
G01*
X2884347Y3948429D03*
G01*
X2630347Y3948429D03*
G01*
X2376347Y3948429D03*
G01*
X2122347Y3948429D03*
G01*
X1868347Y3948429D03*
G01*
X1614347Y3948429D03*
G01*
X1340027Y3948429D03*
G01*
X1106347Y3948429D03*
G01*
X852347Y3948429D03*
G01*
X598347Y3948429D03*
G01*
X344347Y3948429D03*
D18*
G01*
X1999995Y289991D03*
G01*
X4999990Y289991D03*
D15*
G01*
X812800Y1600200D03*
G01*
X1079500Y1600200D03*
G01*
X1333500Y1600200D03*
G01*
X2489200Y1587500D03*
G01*
X2235200Y1587500D03*
G01*
X1968500Y1587500D03*
G01*
X1981200Y2463800D03*
G01*
X2247900Y2463800D03*
G01*
X2501900Y2463800D03*
G01*
X2476500Y7785100D03*
G01*
X2222500Y7785100D03*
G01*
X1955800Y7785100D03*
G01*
X1943100Y6908800D03*
G01*
X2209800Y6908800D03*
G01*
X2463800Y6908800D03*
G01*
X1308100Y6921500D03*
G01*
X1054100Y6921500D03*
G01*
X787400Y6921500D03*
G01*
X800100Y7797800D03*
G01*
X1066800Y7797800D03*
G01*
X1320800Y7797800D03*
D19*
G01*
X6083300Y1244600D03*
M02*
